<?xml version="1.0" encoding="utf-8"?>
<!DOCTYPE svg PUBLIC "-//W3C//DTD SVG 1.0//EN" "http://www.w3.org/TR/2001/REC-SVG-20010904/DTD/svg10.dtd">
<svg version="1.0" xmlns="http://www.w3.org/2000/svg" width="428px" height="260px" viewBox="0 0 428 260" preserveAspectRatio="xMidYMid meet">
 <g fill="#ffffff">
  <path d="M0 130 l0 -130 214 0 214 0 0 130 0 130 -214 0 -214 0 0 -130z"/>
 </g>
 <g fill="#04b707">
  <path d="M210 232.40 c-9.60 -23.40 -26.80 -57 -38 -74.20 -30.20 -45.80 -61 -60.80 -93.20 -45.20 -16.40 7.80 -46 37.80 -64.40 65.60 l-14.40 21.60 0 -59.80 0 -60 13.60 -11.80 c42.40 -37.20 76.80 -52 109.40 -46.60 28.40 4.60 58 27 80.80 61.20 5.80 8.60 10.80 16 11 16.20 0.20 0.40 5.80 -7.40 12.40 -17 44 -65 93.20 -78 150.40 -39.80 8.40 5.80 22 16.60 29.80 24.20 l14.60 13.80 0 58.80 0 58.80 -14.40 -21.60 c-18.40 -27.60 -44 -53.60 -61.40 -62.20 -31.40 -15.60 -61 -2.80 -88 37.80 -10 15.20 -27 50 -36.20 73.80 -3.40 9.40 -6.60 17.20 -6.80 17.40 -0.20 0.40 -2.60 -4.60 -5.20 -11z"/>
 </g>
 <g fill="#6ebe4b">
  <path d="M210 232.40 c-9.60 -23.40 -26.80 -57 -38 -74.20 -30.20 -45.80 -61 -60.80 -93.20 -45.20 -16.40 7.80 -46 37.80 -64.40 65.60 l-14.40 21.60 0 -59.80 0 -60 13.60 -11.80 c42.40 -37.20 76.80 -52 109.40 -46.60 28.40 4.60 58 27 80.80 61.20 5.80 8.60 10.80 16 11 16.20 0.20 0.40 5.80 -7.40 12.40 -17 44 -65 93.20 -78 150.40 -39.80 8.40 5.80 22 16.60 29.80 24.20 l14.60 13.80 0 58.80 0 58.80 -14.40 -21.60 c-18.40 -27.60 -44 -53.60 -61.40 -62.20 -31.40 -15.60 -61 -2.80 -88 37.80 -10 15.20 -27 50 -36.20 73.80 -3.40 9.40 -6.60 17.20 -6.80 17.40 -0.20 0.40 -2.60 -4.60 -5.20 -11z m-8.40 -146 c-15.80 -23.80 -37.40 -44.20 -56.40 -53.60 -15.40 -7.40 -16.80 -7.80 -35 -7.60 -15.80 0 -21.60 1 -32.80 5.40 -17.80 7 -43 23.60 -60 39.60 l-13.60 12.80 0.60 51.80 0.60 51.80 9.40 -14.20 c21.40 -32 49.40 -58.40 69.40 -65.40 5 -1.60 14.40 -3 21 -3 17 0 30.40 6.60 47 23.60 17 17 29.80 36.40 46.20 70.60 l13 27 0.60 -61.60 0.40 -61.60 -10.40 -15.60z m73.40 39.60 c2 -2.20 3.20 -4 2.60 -4 -0.60 0 -2.60 1.80 -4.60 4 -2 2.20 -3.20 4 -2.60 4 0.60 0 2.60 -1.80 4.60 -4z m71 -17 c0 -0.60 -0.40 -1 -1 -1 -0.60 0 -1 0.40 -1 1 0 0.60 0.40 1 1 1 0.60 0 1 -0.40 1 -1z m-100 -44 c0 -0.60 -0.40 -1 -1 -1 -0.60 0 -1 0.40 -1 1 0 0.60 0.40 1 1 1 0.60 0 1 -0.40 1 -1z m38 -32 c0 -0.60 -0.40 -1 -1 -1 -0.60 0 -1 0.40 -1 1 0 0.60 0.40 1 1 1 0.60 0 1 -0.40 1 -1z m16 -6 c0 -0.60 -0.40 -1 -1 -1 -0.60 0 -1 0.40 -1 1 0 0.60 0.40 1 1 1 0.60 0 1 -0.40 1 -1z m13.40 -2.40 c-0.80 -0.60 -2 -0.60 -2.80 0 -0.60 0.80 0 1.40 1.40 1.40 1.40 0 2 -0.60 1.40 -1.40z m10 0 c-0.80 -0.60 -2 -0.60 -2.80 0 -0.60 0.80 0 1.40 1.40 1.40 1.40 0 2 -0.60 1.40 -1.40z"/>
 </g>
 <g fill="#000000">
  <path d="M36 212 l0 -32 7 0 7 0 0 32 0 32 -7 0 -7 0 0 -32z"/>
  <path d="M66 212 l0 -32 24 0 24 0 0 6 0 6 -17 0 -17 0 0 7 0 7 15 0 15 0 0 6 0 6 -15 0 -15 0 0 7 0 7 17 0 17 0 0 6 0 6 -24 0 -24 0 0 -32z"/>
  <path d="M133 240.80 c-9.40 -4.80 -10.20 -6.40 -5.80 -10.80 3.80 -3.80 4.40 -4 10 -1 7.80 4 20.60 4 22.20 -0.20 1.60 -4.40 -2.60 -7.80 -15.20 -11.80 -13.60 -4.40 -18.20 -9 -18.20 -18.20 0 -5.20 1.60 -8.60 5.80 -13 5 -5 7.40 -5.80 16.60 -5.80 6.20 0.20 13.40 1.60 17.20 3.80 l6.60 3.40 -3.80 4.80 c-3.40 4.40 -4.40 4.60 -9.80 2.20 -9 -3.60 -17.40 -2.20 -18.20 3.20 -0.60 3.80 1 4.80 10.80 7.80 7 2 14 5.80 17.40 9.20 5 5 5.80 6.80 4.80 13.20 -1.80 11.20 -9 16.40 -23 16.40 -6.40 0 -14 -1.40 -17.40 -3.20z"/>
  <path d="M210 232.40 c-9.60 -23.40 -26.80 -57 -38 -74.20 -30.20 -45.80 -61 -60.80 -93.20 -45.20 -16.40 7.80 -46 37.80 -64.40 65.60 l-14.40 21.60 0 -59.80 0 -60 13.60 -11.80 c42.40 -37.20 76.80 -52 109.40 -46.60 28.40 4.60 58 27 80.80 61.20 5.80 8.60 10.80 16 11 16.20 0.20 0.40 5.80 -7.40 12.40 -17 44 -65 93.20 -78 150.40 -39.80 8.40 5.80 22 16.60 29.80 24.20 l14.60 13.80 0 58.80 0 58.80 -14.40 -21.60 c-18.40 -27.60 -44 -53.60 -61.40 -62.20 -31.40 -15.60 -61 -2.80 -88 37.80 -10 15.20 -27 50 -36.20 73.80 -3.40 9.40 -6.60 17.20 -6.80 17.40 -0.20 0.40 -2.60 -4.60 -5.20 -11z m-8.40 -146 c-15.80 -23.80 -37.40 -44.20 -56.40 -53.60 -15.40 -7.40 -16.80 -7.80 -35 -7.60 -15.80 0 -21.60 1 -32.80 5.40 -17.80 7 -43 23.60 -60 39.60 l-13.60 12.80 0.60 51.80 0.60 51.80 9.40 -14.20 c21.40 -32 49.40 -58.40 69.40 -65.40 5 -1.60 14.40 -3 21 -3 17 0 30.40 6.60 47 23.60 17 17 29.80 36.40 46.20 70.60 l13 27 0.60 -61.60 0.40 -61.60 -10.40 -15.60z m26.80 115.60 c26 -61.80 59.80 -98 91.40 -98 26.60 0 56 22 85.80 63.80 l13.40 19 0.60 -51.80 0.60 -52 -12.60 -11.80 c-71 -66.40 -126 -62.20 -177.40 13.60 l-12.20 18 0 61 c0 33.40 0.40 60.40 0.80 60 0.40 -0.40 4.60 -10.20 9.60 -21.80z"/>
 </g>
</svg>