<?xml version="1.0" encoding="utf-8"?>
<!DOCTYPE svg PUBLIC "-//W3C//DTD SVG 1.0//EN" "http://www.w3.org/TR/2001/REC-SVG-20010904/DTD/svg10.dtd">
<svg version="1.0" xmlns="http://www.w3.org/2000/svg" width="778px" height="260px" viewBox="0 0 778 260" preserveAspectRatio="xMidYMid meet">
 <g fill="#ffffff">
  <path d="M0 130 l0 -130 389 0 389 0 0 130 0 130 -389 0 -389 0 0 -130z"/>
 </g>
 <g fill="#6dc745">
  <path d="M213.2 240.6 c-1.2 -2.7 -2.2 -5.1 -2.2 -5.3 0 -0.2 -1.1 -2.9 -2.5 -5.9 -1.4 -3 -2.5 -5.7 -2.5 -5.9 0 -2 -17.4 -37.7 -23.9 -49 -8.6 -14.8 -19.7 -31.6 -23.1 -34.5 -0.3 -0.3 -2.7 -3.1 -5.4 -6.2 -9.7 -11.6 -25.3 -22.2 -37.1 -25.3 -6.9 -1.8 -17.7 -2 -24.3 -0.4 -8 1.9 -22.3 9.5 -30.7 16.2 -17 13.8 -34.5 34.6 -53.5 63.9 l-8 12.3 0 -59.6 0 -59.6 7.8 -7.4 c27.4 -26.4 53.3 -42.9 78.7 -50 6.7 -1.9 10.5 -2.3 23.5 -2.3 16 0 20.1 0.6 31.7 5.2 22.1 8.9 43 28.2 64.6 60 3.1 4.5 6.4 9.6 7.3 11.4 l1.6 3.1 2 -3.4 c1.1 -1.9 5.8 -9.1 10.4 -16 17.1 -25.9 34.6 -43 53.9 -52.6 18.8 -9.5 41.9 -10.8 63.4 -3.6 20.3 6.7 44 22.7 67.3 45.2 l10.8 10.4 0 59.6 0 59.6 -3.2 -5 c-42.7 -67.8 -76.7 -94.4 -110.8 -86.6 -12.8 3 -28 13.9 -39.9 28.6 -15 18.6 -29.1 44.2 -42.1 76.5 -3.6 9.2 -10.3 26.9 -11.2 30 -0.3 0.9 -1.3 -0.5 -2.6 -3.4z"/>
  <path d="M458.4 154.3 c-3.4 -0.4 -11.4 -6.6 -11.4 -8.8 0 -2.6 2.8 -2.3 5.6 0.6 6.5 6.8 15.8 5.7 19.4 -2.3 1.8 -3.9 2 -6.7 2 -29 0 -24.4 0 -24.8 2.1 -24.8 2 0 2 0.3 1.7 26.8 -0.3 26 -0.4 26.8 -2.6 30.5 -3.5 5.5 -9.4 8 -16.8 7z"/>
  <path d="M598.4 153.2 c-8.7 -4.1 -13.1 -13.6 -12.1 -25.9 0.9 -11.2 6.8 -19.3 15.3 -20.9 11 -2.1 19.9 6.3 21.1 19.8 l0.6 5.8 -16.7 0 c-16.6 0 -16.6 0 -16.6 2.3 0.1 3.2 3.3 9.8 6.1 12.4 5.5 5 11.9 5.5 19 1.6 5 -2.7 7.2 -2.5 5.3 0.5 -3.3 5.2 -15.1 7.6 -22 4.4z m20.6 -25.5 c0 -0.7 -0.7 -3.6 -1.5 -6.4 -4.4 -14.8 -20.9 -15.2 -25.9 -0.6 -2.9 8.5 -3.5 8.1 12.9 8.2 11.6 0.1 14.5 -0.1 14.5 -1.2z"/>
  <path d="M693.5 153.1 c-8.7 -4 -13 -12.4 -12.3 -24.3 0.2 -5 1.1 -8.8 2.7 -12.1 5.6 -11.5 20.1 -14.1 28 -5.2 3.2 3.7 6.1 11.8 6.1 17.2 l0 3.3 -16.6 0 -16.7 0 0.7 4.2 c0.8 4.8 4.4 10.1 9 12.9 4 2.6 12.2 2 16.5 -1 3.4 -2.4 5.1 -2.7 5.1 -0.8 0 3.4 -8.4 7.6 -15 7.6 -1.9 0 -5.3 -0.8 -7.5 -1.8z m19.8 -25.5 c1.2 -3 -2.2 -11.3 -5.8 -14.5 -2.9 -2.5 -4.5 -3.1 -8.2 -3.1 -3.9 0 -5 0.5 -8.3 3.8 -3.4 3.4 -6 9.1 -6 13.2 0 2.3 27.5 2.9 28.3 0.6z"/>
  <path d="M493.2 130.8 c0.3 -21.2 0.5 -23.3 2.1 -23.6 1.6 -0.3 1.7 1.3 1.7 23.2 0 23 -0.1 23.6 -2 23.6 -2 0 -2 -0.5 -1.8 -23.2z"/>
  <path d="M512.9 153.6 c-0.2 -0.2 -0.3 -10.8 -0.1 -23.5 0.3 -21.9 0.4 -23.1 2.2 -23.1 1.6 0 1.8 0.5 1.3 3.5 -0.3 1.9 -0.3 3.5 0 3.5 0.3 0 2 -1.5 3.9 -3.4 6.2 -6.2 16.2 -5.8 21.4 0.9 l2.6 3.4 2.6 -3.1 c7.2 -8.5 19.9 -7.5 24.9 2.1 2.2 4.1 2.3 5.6 2.3 22.3 0 17.1 -0.1 17.8 -2 17.8 -1.9 0 -2 -0.7 -2 -17 0 -18.4 -0.8 -22.3 -5.1 -25.4 -2.7 -1.9 -9.1 -2.1 -12.2 -0.5 -6.1 3.3 -7.8 9.9 -7.6 28.9 0.1 12.3 0 13.5 -1.6 13.5 -1.7 0 -1.8 -1.2 -1.6 -14 0.3 -22.8 -2.3 -29.5 -11.7 -29.5 -5.7 0 -10.5 3.4 -12.3 8.7 -0.7 2.2 -1.2 9.8 -1.2 19.5 0 14.1 -0.2 15.8 -1.7 15.8 -0.9 0 -1.9 -0.2 -2.1 -0.4z"/>
  <path d="M635 130.5 c0 -22.9 0.1 -23.5 2 -23.5 1.7 0 1.9 0.5 1.4 2.4 -1 4.2 0.4 4.5 4.1 1 4.3 -4 9.2 -5.1 15.5 -3.5 5.1 1.3 9.4 5.6 10.4 10.3 0.3 1.7 0.6 10.6 0.6 19.9 0 16.2 -0.1 16.9 -2 16.9 -1.9 0 -2 -0.7 -2 -17.1 0 -22.8 -1.9 -26.9 -12.3 -26.9 -5.6 0 -8.8 1.8 -11.9 6.8 -2 3.3 -2.2 4.8 -2.2 20.4 0 15.4 -0.2 16.8 -1.8 16.8 -1.7 0 -1.8 -1.7 -1.8 -23.5z"/>
  <path d="M726 152.4 c0 -0.9 3 -6 6.7 -11.3 15.4 -22.1 20.2 -29.4 19.7 -30.2 -0.3 -0.5 -6.1 -0.9 -13 -0.9 -10.4 0 -12.4 -0.2 -12.4 -1.5 0 -1.3 2.4 -1.5 15.9 -1.5 8.8 0 16.2 0.4 16.5 0.8 0.2 0.4 -3.6 6.6 -8.5 13.7 -14.2 20.4 -18.9 27.4 -18.9 27.9 0 0.3 6.2 0.7 13.8 0.8 11.4 0.3 13.7 0.6 13.7 1.8 0 1.3 -2.6 1.5 -16.7 1.8 -15 0.2 -16.8 0.1 -16.8 -1.4z"/>
  <path d="M604.3 98.6 c0.3 -0.8 1.8 -3.3 3.2 -5.6 2.1 -3.4 3 -4 4.8 -3.4 3.4 1 3.4 1.1 -1.3 5.9 -4.3 4.4 -7.8 6 -6.7 3.1z"/>
  <path d="M494.3 95.3 c-0.7 -0.2 -1.3 -1.8 -1.3 -3.4 0 -2.4 0.4 -2.9 2.6 -2.9 2.2 0 2.5 0.4 2.2 3.2 -0.3 3.2 -1.3 4 -3.5 3.1z"/>
 </g>
 <g fill="#04b707">
  <path d="M213.2 240.6 c-1.2 -2.7 -2.2 -5.1 -2.2 -5.3 0 -0.2 -1.1 -2.9 -2.5 -5.9 -1.4 -3 -2.5 -5.7 -2.5 -5.9 0 -2 -17.4 -37.7 -23.9 -49 -8.6 -14.8 -19.7 -31.6 -23.1 -34.5 -0.3 -0.3 -2.7 -3.1 -5.4 -6.2 -9.7 -11.6 -25.3 -22.2 -37.1 -25.3 -6.9 -1.8 -17.7 -2 -24.3 -0.4 -8 1.9 -22.3 9.5 -30.7 16.2 -17 13.8 -34.5 34.6 -53.5 63.9 l-8 12.3 0 -59.6 0 -59.6 7.8 -7.4 c27.4 -26.4 53.3 -42.9 78.7 -50 6.7 -1.9 10.5 -2.3 23.5 -2.3 16 0 20.1 0.6 31.7 5.2 22.1 8.9 43 28.2 64.6 60 3.1 4.5 6.4 9.6 7.3 11.4 l1.6 3.1 2 -3.4 c1.1 -1.9 5.8 -9.1 10.4 -16 17.1 -25.9 34.6 -43 53.9 -52.6 18.8 -9.5 41.9 -10.8 63.4 -3.6 20.3 6.7 44 22.7 67.3 45.2 l10.8 10.4 0 59.6 0 59.6 -3.2 -5 c-42.7 -67.8 -76.7 -94.4 -110.8 -86.6 -12.8 3 -28 13.9 -39.9 28.6 -15 18.6 -29.1 44.2 -42.1 76.5 -3.6 9.2 -10.3 26.9 -11.2 30 -0.3 0.9 -1.3 -0.5 -2.6 -3.4z m11.7 -31.1 c7.4 -18 18.9 -41 26.7 -53.5 21.5 -34.3 42.1 -50.5 65.9 -51.8 11 -0.6 18.6 1.2 30 6.7 20 9.8 42.6 32.7 63.8 64.6 2.5 3.9 5.3 7.9 6.1 9 1.3 1.8 1.5 -3.8 1.6 -50 l0 -52.1 -7.2 -7 c-39.1 -37.9 -74.7 -54.9 -105.3 -50.3 -30.1 4.6 -57.8 28.2 -83.8 71.2 l-4.7 7.8 0 60.1 c0 33.1 0.4 59.8 0.8 59.3 0.5 -0.6 3.2 -6.8 6.1 -14z"/>
  <path d="M618.8 146.3 c0.7 -0.3 1.6 -0.2 1.9 0.1 0.4 0.3 -0.2 0.6 -1.3 0.5 -1.1 0 -1.4 -0.3 -0.6 -0.6z"/>
  <path d="M642.6 112.3 c-1.1 -1.1 -0.6 -2.3 0.9 -2.3 0.8 0 1.5 0.4 1.5 0.9 0 1.3 -1.6 2.2 -2.4 1.4z"/>
 </g>
 <g fill="#000000">
  <path d="M142 244.1 c-7.3 -1.5 -18.1 -7.4 -18 -9.8 0 -0.4 1.8 -2.7 3.8 -5 l3.8 -4.3 3.5 2.5 c9.6 7.2 24.9 6.5 24.9 -1 0 -3.5 -3.3 -5.6 -13.6 -8.6 -11.2 -3.2 -16.4 -6.4 -18.7 -11.2 -3.2 -6.8 -1.6 -16.7 3.5 -21.3 4.9 -4.5 8.9 -5.8 17.9 -5.7 7.5 0.1 9.5 0.5 15.3 3.2 3.6 1.8 6.6 3.6 6.6 4.1 0 1.4 -5.4 10 -6.3 10 -0.4 0 -2.9 -1.1 -5.5 -2.4 -6.3 -3.1 -11.7 -3.9 -15.8 -2.1 -3.4 1.4 -3.8 2.1 -3.4 6 0.2 2.7 2.2 4.1 8.9 6.1 13.5 4 15.6 4.8 19.1 8 9.6 8.7 6.5 24.8 -5.9 30.1 -4 1.7 -15.2 2.5 -20.1 1.4z"/>
  <path d="M213.2 240.6 c-1.2 -2.7 -2.2 -5.1 -2.2 -5.3 0 -0.2 -1.1 -2.9 -2.5 -5.9 -1.4 -3 -2.5 -5.7 -2.5 -5.9 0 -2 -17.4 -37.7 -23.9 -49 -8.6 -14.8 -19.7 -31.6 -23.1 -34.5 -0.3 -0.3 -2.7 -3.1 -5.4 -6.2 -9.7 -11.6 -25.3 -22.2 -37.1 -25.3 -6.9 -1.8 -17.7 -2 -24.3 -0.4 -8 1.9 -22.3 9.5 -30.7 16.2 -17 13.8 -34.5 34.6 -53.5 63.9 l-8 12.3 0 -59.6 0 -59.6 7.8 -7.4 c27.4 -26.4 53.3 -42.9 78.7 -50 6.7 -1.9 10.5 -2.3 23.5 -2.3 16 0 20.1 0.6 31.7 5.2 22.1 8.9 43 28.2 64.6 60 3.1 4.5 6.4 9.6 7.3 11.4 l1.6 3.1 2 -3.4 c1.1 -1.9 5.8 -9.1 10.4 -16 17.1 -25.9 34.6 -43 53.9 -52.6 18.8 -9.5 41.9 -10.8 63.4 -3.6 20.3 6.7 44 22.7 67.3 45.2 l10.8 10.4 0 59.6 0 59.6 -3.2 -5 c-42.7 -67.8 -76.7 -94.4 -110.8 -86.6 -12.8 3 -28 13.9 -39.9 28.6 -15 18.6 -29.1 44.2 -42.1 76.5 -3.6 9.2 -10.3 26.9 -11.2 30 -0.3 0.9 -1.3 -0.5 -2.6 -3.4z m-1.1 -76.6 l0 -61.3 -3.7 -6.1 c-20.9 -33.9 -44.3 -56.6 -68.5 -66.3 -10.8 -4.4 -17.8 -5.7 -29.9 -5.7 -30.6 0 -61.8 16.2 -99.3 51.5 l-6.8 6.4 0.3 52.5 c0.3 52 0.3 52.5 2.2 49.1 1.7 -3.2 12.6 -18.8 17.8 -25.6 19.7 -25.5 36.5 -40.7 54.3 -49.1 17.5 -8.2 31.8 -8.4 48.2 -0.9 26.6 12.1 53.8 48 77.7 102.5 6.2 14.1 6.8 15.2 7.2 14.7 0.2 -0.2 0.4 -28 0.5 -61.7z m12.8 45.5 c7.4 -18 18.9 -41 26.7 -53.5 21.5 -34.3 42.1 -50.5 65.9 -51.8 11 -0.6 18.6 1.2 30 6.7 20 9.8 42.6 32.7 63.8 64.6 2.5 3.9 5.3 7.9 6.1 9 1.3 1.8 1.5 -3.8 1.6 -50 l0 -52.1 -7.2 -7 c-39.1 -37.9 -74.7 -54.9 -105.3 -50.3 -30.1 4.6 -57.8 28.2 -83.8 71.2 l-4.7 7.8 0 60.1 c0 33.1 0.4 59.8 0.8 59.3 0.5 -0.6 3.2 -6.8 6.1 -14z"/>
  <path d="M36 212 l0 -32 7 0 7 0 0 32 0 32 -6.9 0 -7 0 -0.1 -32z"/>
  <path d="M66.8 212 l-0.3 -32 23.9 0.2 23.8 0.3 0.2 5.7 0.1 5.8 -17 0.2 -17 0.3 -0.3 6.8 -0.3 6.7 15 0 14.9 0 0.4 5.6 c0.1 3.1 0.1 5.8 -0.1 6 -0.2 0.2 -7.1 0.4 -15.3 0.4 l-14.9 0 0.3 6.8 0.3 6.7 17.3 0.3 17.2 0.2 0 6 0 6 -24 0 -23.9 0 -0.3 -32z"/>
  <path d="M696.1 242.8 c-3.3 -1.8 -2.3 -3.4 1.8 -3 5.4 0.5 7.7 -0.5 10.1 -4.5 2.5 -4.3 2.3 -7.5 -0.9 -14.6 -1.2 -2.5 -2.1 -4.9 -2.1 -5.2 0 -0.3 -0.8 -2.5 -1.9 -4.8 -1 -2.3 -3.1 -7.3 -4.5 -11.2 -1.5 -3.8 -3.6 -8.9 -4.7 -11.2 -2.4 -5.3 -2.4 -5.3 0.4 -5.3 1.9 0 3.1 2.4 10.2 20.5 4.3 11.3 8.2 20.1 8.5 19.7 0.4 -0.4 2.9 -7.2 5.5 -15.2 8.3 -24.8 8.2 -24.5 10.4 -24.8 1.2 -0.2 2.1 -0.2 2.1 0 0 0.3 -1.3 4.2 -2.9 8.9 -14.3 41 -16.8 47 -20.6 49.5 -3.3 2.1 -8.6 2.7 -11.4 1.2z"/>
  <path d="M529.4 229.1 c-13.4 -6.1 -16.6 -29.4 -5.7 -40.6 6.3 -6.5 13.4 -8 21.2 -4.5 5.1 2.4 7.7 5 10.2 10.5 6 13.3 1.1 29.3 -10.6 34.6 -5.1 2.4 -9.9 2.3 -15.1 0z m14.1 -3.5 c4.4 -1.9 8.2 -7.7 9.6 -14.7 3.3 -16.5 -11.3 -30.7 -23.2 -22.6 -11.9 8 -11.3 30.3 1.1 36.8 4.2 2.3 7.9 2.4 12.5 0.5z"/>
  <path d="M625.7 229.1 c-4.8 -2.4 -5.6 -6.1 -5.6 -25.6 l-0.1 -17.1 -2.7 0.1 c-1.8 0 -2.9 -0.6 -3.1 -1.7 -0.3 -1.4 0.3 -1.8 2.7 -1.8 l3.1 0 0 -6.8 c0 -7.3 0.4 -8.4 2.6 -7.5 1 0.4 1.4 2.4 1.4 7.4 l0 6.9 7 0 c6.3 0 7 0.2 7 2 0 1.8 -0.7 2 -7.1 2 l-7 0 0.3 18.1 c0.3 17.9 0.3 18.1 2.8 20.1 2 1.6 3.4 1.9 6.7 1.4 3.8 -0.5 4.3 -0.3 4.3 1.4 0 1.4 -0.7 2 -2.2 2.1 -1.3 0 -3.3 0.2 -4.6 0.3 -1.3 0.2 -3.8 -0.4 -5.5 -1.3z"/>
  <path d="M659.6 229.6 c-8.5 -3.2 -13.6 -11.5 -13.6 -22.2 0 -8.6 1.5 -13.5 5.7 -18.3 9.3 -10.9 24.8 -8.5 31.6 4.9 2.5 4.9 2.7 6.4 2.4 13.6 -0.3 6.6 -0.8 8.9 -3.1 12.8 -5 8.5 -14.5 12.3 -23 9.2z m15.6 -6.2 c4.2 -4 6.8 -9.9 6.8 -16 0.1 -20.7 -20.2 -29.4 -29.3 -12.5 -4.5 8.1 -3.3 20 2.6 27.3 4.5 5.6 14.5 6.2 19.9 1.2z"/>
  <path d="M745.5 229.1 c-6.1 -2.8 -7.8 -5.3 -8.2 -11.9 -0.8 -11.1 6.7 -17 20.1 -15.9 3.9 0.3 8 0.9 9 1.3 1.8 0.7 1.9 0.4 1.3 -4 -0.9 -6.1 -2.1 -8.3 -6 -10.6 -3.8 -2.4 -10.4 -2.6 -15.4 -0.5 -4.6 2 -5.3 1.9 -5.3 -0.5 0 -4.2 15.5 -6 22.5 -2.5 6.6 3.3 7.3 6.1 7.7 27.3 0.3 16.8 0.2 18.2 -1.4 18.2 -1.4 0 -1.8 -0.8 -1.8 -3.6 l0 -3.6 -4 3.5 c-3.6 3.1 -8.2 4.7 -13 4.7 -0.8 0 -3.3 -0.9 -5.5 -1.9z m16.3 -4.8 c3.7 -2.7 6.2 -8 6.2 -13.1 0 -3.7 -0.3 -4.4 -2.7 -5.3 -4.1 -1.5 -14.4 -1.6 -18.1 0 -3.9 1.6 -6.2 5.6 -6.2 10.7 0 2.8 0.8 4.4 3.5 7.1 3.4 3.4 3.8 3.5 9.1 3.1 3.3 -0.3 6.6 -1.3 8.2 -2.5z"/>
  <path d="M452 198 l0 -32 2.3 0 c1.8 0 4 3.1 12.7 18.5 5.8 10.2 10.7 18.5 11 18.5 0.6 0 1.6 -1.5 5.2 -8 1.4 -2.5 3.9 -6.9 5.7 -9.8 1.7 -2.9 3.1 -5.4 3.1 -5.6 0 -0.2 1.7 -3.3 3.9 -6.7 2.5 -4.2 4.6 -6.5 6 -6.7 l2.1 -0.3 0 32 c0 31.3 0 32.1 -2 32.1 -1.9 0 -2 -0.8 -2.2 -27.7 l-0.3 -27.7 -5.4 9.4 c-3 5.2 -7.3 12.7 -9.6 16.5 -2.3 3.9 -4.4 7.8 -4.8 8.8 -0.3 0.9 -1 1.7 -1.4 1.7 -0.4 0 -5 -7.3 -10.1 -16.3 -5.1 -8.9 -9.9 -17.1 -10.7 -18.1 -1.3 -1.8 -1.5 1.1 -1.5 25.7 0 27 0 27.7 -2 27.7 -2 0 -2 -0.7 -2 -32z"/>
  <path d="M570 206.4 c0 -21.9 0.1 -23.5 1.8 -23.2 1.2 0.3 1.7 1.3 1.7 3.9 l0 3.6 3.7 -3.8 c4.4 -4.5 10.8 -6 16.7 -3.9 4.1 1.5 5.2 2.5 8 7.1 1.9 3.1 2.1 5 2.1 21.7 0 17.5 -0.1 18.2 -2 18.2 -1.9 0 -2 -0.7 -2 -17 0 -18.6 -0.8 -22.3 -5.3 -25.3 -3.2 -2.1 -9.8 -2.2 -13.7 -0.2 -1.5 0.8 -3.8 3 -4.9 4.8 -1.9 3.1 -2.1 4.9 -2.1 20.6 0 16.4 -0.1 17.1 -2 17.1 -1.9 0 -2 -0.7 -2 -23.6z"/>
  <path d="M452.7 77.4 c-0.4 -0.4 -0.7 -14.9 -0.7 -32.1 l0 -31.5 13.9 0.4 c13.6 0.3 14 0.4 18.2 3.3 6.1 4.3 7.8 7.8 8 15.9 0.1 6 -0.2 7.2 -2.8 10.9 -4.8 6.9 -9.8 9 -22.5 9.5 l-10.7 0.5 -0.3 11.5 c-0.3 10.7 -1.1 13.6 -3.1 11.6z m24.3 -28.5 c7.7 -2.3 11 -7.2 11 -16.1 0 -4 -0.6 -5.9 -2.6 -8.6 -3.8 -4.9 -7.7 -6.2 -19.4 -6.2 l-10 0 0 16 0 16 8.6 0 c4.8 0 10.4 -0.5 12.4 -1.1z"/>
  <path d="M512 75.9 c-6.7 -4.1 -9.9 -9.6 -10.7 -18.5 -1.1 -11.3 3.9 -22.8 11.3 -25.9 13.1 -5.4 25.4 4.6 25.4 20.8 l0 3.7 -16.6 0 -16.6 0 0.5 2.9 c1.2 5.7 3.5 9.9 7.2 12.7 4.9 3.7 12.2 3.9 17.9 0.6 4.3 -2.6 7.8 -2.3 5.5 0.4 -4.5 5.4 -17.4 7.2 -23.9 3.3z m22 -25.5 c0 -6.7 -6.2 -15.6 -11.5 -16.6 -4 -0.8 -9.2 0.9 -12 4 -2.1 2.3 -5.5 10.5 -5.5 13.4 0 0.4 6.5 0.8 14.5 0.8 12.8 0 14.5 -0.2 14.5 -1.6z"/>
  <path d="M557.3 76 c-9.5 -5.7 -13.1 -23.6 -7.2 -35.3 2.5 -4.8 3.5 -5.9 8 -8.6 3.7 -2.3 10.1 -2.7 14.6 -1 1.5 0.6 4.5 2.9 6.6 5.2 l3.8 4.2 -0.3 -14.3 c-0.3 -13.2 -0.2 -14.3 1.5 -14 1.7 0.3 1.8 2.4 1.8 32.8 0 30.5 -0.2 32.5 -1.8 32.5 -1.5 0 -1.7 -0.7 -1.5 -4.7 0.4 -5.5 -0.6 -6.1 -3 -1.8 -3.8 6.8 -15.4 9.4 -22.5 5z m14.4 -2.5 c3.9 -1.6 6.6 -4.3 9.1 -9 2.2 -4.1 2.2 -16.9 0 -21.1 -4.9 -9.1 -14.8 -12.4 -22 -7.2 -9.2 6.5 -9.8 27.1 -1 35.1 1.9 1.7 6.1 3.4 9 3.6 0.7 0.1 2.9 -0.6 4.9 -1.4z"/>
  <path d="M602 77.8 c0 -0.2 -0.1 -10.8 -0.3 -23.6 -0.2 -21.2 -0.1 -23.2 1.5 -23.2 1.3 0 1.8 1.1 2 5.2 l0.3 5.2 2.5 -3.7 c4 -5.9 15 -10.3 15 -5.9 0 1.3 -1.3 2.1 -4.4 3 -10.2 2.7 -13.6 10.3 -13.6 30.4 0 10.7 -0.2 12.8 -1.5 12.8 -0.8 0 -1.5 -0.1 -1.5 -0.2z"/>
  <path d="M639.5 76.2 c-4.7 -2.9 -8.3 -7.8 -10 -13.4 -1.9 -6.5 -1.9 -11.1 0 -17.6 5.9 -19.8 29.9 -20.5 37.6 -1.2 0.7 1.9 1.3 6.6 1.3 10.5 0 8.5 -2.9 15.2 -8.7 19.9 -3.3 2.6 -4.8 3.1 -10.5 3.4 -5.3 0.2 -7.3 -0.1 -9.7 -1.6z m14.2 -2.7 c6.8 -2.9 10.5 -9.6 10.6 -19.1 0 -10.4 -4.8 -18.1 -12.6 -20.2 -10.4 -2.9 -19.2 6.2 -19.2 19.8 0 8.8 3.4 15.5 9.5 18.7 5.1 2.7 6.8 2.8 11.7 0.8z"/>
 </g>
</svg>